<svg width="32" height="22" viewBox="0 0 32 22" fill="none" xmlns="http://www.w3.org/2000/svg">
<path d="M31.9173 13.3394L30.2976 10.861C29.5823 9.76589 28.3671 9.11194 27.0461 9.11194H22.8571V6.70135C22.8571 5.22953 21.6602 4.03266 20.1884 4.03266H12.3465C11.9065 1.73454 9.88363 -0.0090332 7.45908 -0.0090332C4.71366 -0.0090332 2.48035 2.22456 2.48035 4.96969C2.48035 6.69582 3.3642 8.2185 4.70232 9.11194H0.508045C0.227283 9.11194 0 9.33923 0 9.61999C0 9.90075 0.227283 10.128 0.508045 10.128H5.58733V11.1438H3.55544C3.27497 11.1438 3.04769 11.3711 3.04769 11.6519C3.04769 11.9326 3.27497 12.1596 3.55544 12.1596H5.58733V13.1754H0.508045C0.227283 13.1754 0 13.4027 0 13.6835C0 13.9642 0.227283 14.1915 0.508045 14.1915H5.58733V16.4411C4.69186 16.8361 4.06349 17.7295 4.06349 18.7694V19.2708C4.06349 19.5516 4.29106 19.7789 4.57153 19.7789H9.07651C9.36541 21.0216 10.4797 21.9517 11.8094 21.9517C13.1394 21.9517 14.2535 21.0216 14.5424 19.7789H24.3147C24.6038 21.0216 25.7182 21.9517 27.0476 21.9517C28.377 21.9517 29.4916 21.0216 29.7805 19.7789H31.4921C31.7729 19.7789 31.9999 19.5516 31.9999 19.2708V13.6172C31.9999 13.5184 31.9711 13.4216 31.9173 13.3394ZM3.49615 4.96969C3.49615 2.78463 5.27402 1.00677 7.45908 1.00677C9.64443 1.00677 11.422 2.78463 11.422 4.96969C11.422 7.15475 9.64443 8.93262 7.45908 8.93262C5.27402 8.93262 3.49615 7.15475 3.49615 4.96969ZM6.60313 14.1915H7.61893C7.89969 14.1915 8.12698 13.9642 8.12698 13.6835C8.12698 13.4027 7.89969 13.1754 7.61893 13.1754H6.60313V12.1596H10.1589C10.4393 12.1596 10.6666 11.9326 10.6666 11.6519C10.6666 11.3711 10.4393 11.1438 10.1589 11.1438H6.60313V10.128H13.2063C13.4867 10.128 13.7143 9.90075 13.7143 9.61999C13.7143 9.33923 13.4867 9.11194 13.2063 9.11194H10.2158C11.5333 8.23217 12.4073 6.74174 12.434 5.04846H20.1887C21.0999 5.04846 21.8413 5.79018 21.8413 6.70135V16.2231H6.60953C6.60749 16.2231 6.60546 16.2237 6.60313 16.2237V14.1915ZM21.8413 18.7628H14.5886C14.5086 18.1786 14.2494 17.6519 13.8666 17.2389H21.8413V18.7628ZM6.60953 17.2389H9.75225C9.36977 17.6519 9.11022 18.1786 9.03059 18.7628H5.07929C5.08277 17.9222 5.76811 17.2389 6.60953 17.2389ZM11.8094 20.9359C10.8215 20.9359 10.0173 20.132 10.0173 19.1438C10.0173 18.1559 10.8215 17.3517 11.8094 17.3517C12.7976 17.3517 13.6015 18.1559 13.6015 19.1438C13.6015 20.132 12.7976 20.9359 11.8094 20.9359ZM27.0476 20.9359C26.0597 20.9359 25.2555 20.132 25.2555 19.1438C25.2555 18.1559 26.0597 17.3517 27.0476 17.3517C28.0358 17.3517 28.8397 18.1559 28.8397 19.1438C28.8397 20.132 28.0358 20.9359 27.0476 20.9359ZM30.9841 18.7628H29.8267C29.6398 17.3947 28.4662 16.3359 27.0476 16.3359C25.629 16.3359 24.4556 17.3947 24.2684 18.7628H22.8571V10.128H27.0461C28.0224 10.128 28.9202 10.6096 29.4474 11.4165L30.9841 13.7683V18.7628Z" fill="white"/>
<path d="M27.8785 19.1439C27.8785 19.6029 27.5065 19.9749 27.0476 19.9749C26.5887 19.9749 26.2166 19.6029 26.2166 19.1439C26.2166 18.685 26.5887 18.313 27.0476 18.313C27.5065 18.313 27.8785 18.685 27.8785 19.1439Z" fill="white"/>
<path d="M12.6404 19.1439C12.6404 19.6029 12.2684 19.9749 11.8094 19.9749C11.3508 19.9749 10.9788 19.6029 10.9788 19.1439C10.9788 18.685 11.3508 18.313 11.8094 18.313C12.2684 18.313 12.6404 18.685 12.6404 19.1439Z" fill="white"/>
<path d="M8.12698 4.96977V2.7475C8.12698 2.46674 7.8997 2.23975 7.61894 2.23975C7.33847 2.23975 7.11118 2.46674 7.11118 2.7475V4.8041L6.07446 6.22622C5.90908 6.45292 5.95878 6.77031 6.18548 6.93539C6.27617 7.00166 6.3808 7.03334 6.48456 7.03334C6.64121 7.03334 6.79584 6.96097 6.89524 6.82437L8.02961 5.26884C8.09268 5.18223 8.12698 5.0776 8.12698 4.96977Z" fill="white"/>
<path d="M26.8764 10.6357H25.9048C25.624 10.6357 25.3967 10.863 25.3967 11.1438V14.6992C25.3967 14.98 25.624 15.2073 25.9048 15.2073H29.3233C29.6419 15.2073 29.927 15.0425 30.0868 14.7673C30.2467 14.492 30.247 14.1624 30.0895 13.8878L28.9033 11.8117C28.4892 11.0868 27.7123 10.6357 26.8764 10.6357ZM26.4128 14.1915V11.6518H26.8764C27.3487 11.6518 27.7873 11.9062 28.0212 12.316L29.0928 14.1915H26.4128Z" fill="white"/>
</svg>
